<svg fill="#000000" width="800px" height="800px" viewBox="0 0 24 24" role="img" xmlns="http://www.w3.org/2000/svg"><title>Globe icon</title><path d="M12 0a12 12 0 1 0 0 24 12 12 0 0 0 0-24zM8.43 4.23a21.465 21.465 0 0 1 7.14 0 21.498 21.498 0 0 1-7.14 0zM12 21.9a21.362 21.362 0 0 1-7.67-1.44 21.395 21.395 0 0 1-1.1-17.79 21.315 21.315 0 0 1 17.54 0 21.395 21.395 0 0 1-1.1 17.79A21.362 21.362 0 0 1 12 21.9zm3.57-17.67a21.465 21.465 0 0 1-7.14 0 21.498 21.498 0 0 1 7.14 0zM12 12.86a2.69 2.69 0 1 1 2.69-2.69A2.69 2.69 0 0 1 12 12.86zm0-3.9a1.21 1.21 0 1 0 1.21 1.21A1.21 1.21 0 0 0 12 8.96zm0 10.84a8.8 8.8 0 1 1 8.8-8.8 8.809 8.809 0 0 1-8.8 8.8zm0-16.12a7.32 7.32 0 1 0 7.32 7.32A7.329 7.329 0 0 0 12 3.68z"/></svg> 